# AST/ASF file generated using VICON BodyLanguage
# -----------------------------------------------
:version 1.10
:name VICON
:units
  mass 1.0
  length 0.45
  angle deg
:documentation
   .ast/.asf automatically generated from VICON data using
   VICON BodyBuilder and BodyLanguage model FoxedUp or BRILLIANT.MOD
:root
   order TX TY TZ RX RY RZ
   axis XYZ
   position 0 0 0  
   orientation 0 0 0 
:bonedata
  begin
     id 1 
     name lhipjoint
     direction 0.722297 -0.617336 0.311742 
     length 2.6635 
     axis 0 0 0  XYZ
  end
  begin
     id 2 
     name lfemur
     direction 0.34202 -0.939693 0  
     length 7.39349  
     axis 0 0 20  XYZ
    dof rx ry rz
    limits (-160.0 20.0)
           (-70.0 70.0)
           (-60.0 70.0)
  end
  begin
     id 3 
     name ltibia
     direction 0.34202 -0.939693 0   
     length 7.36294   
     axis 0 0 20   XYZ
    dof rx
    limits (-10.0 170.0)
  end
  begin
     id 4 
     name lfoot
     direction 0.104879 -0.288152 0.951824   
     length 2.16981   
     axis -90 7.62852e-016 20   XYZ
    dof rx rz
    limits (-45.0 90.0)
           (-70.0 20.0)
  end
  begin
     id 5 
     name ltoes
     direction 1.53586e-011 -4.21895e-011 1   
     length 1.08218   
     axis -90 7.62852e-016 20   XYZ
    dof rx
    limits (-90.0 20.0)
  end
  begin
     id 6 
     name rhipjoint
     direction -0.75102 -0.589393 0.297631   
     length 2.78977  
     axis 0 0 0  XYZ 
  end
  begin
     id 7 
     name rfemur
     direction -0.34202 -0.939693 0   
     length 7.46076   
     axis 0 0 -20   XYZ
    dof rx ry rz
    limits (-160.0 20.0)
           (-70.0 70.0)
           (-70.0 60.0)
  end
  begin
     id 8 
     name rtibia
     direction -0.34202 -0.939693 0   
     length 7.31726   
     axis 0 0 -20   XYZ
    dof rx
    limits (-10.0 170.0)
 end
 begin
     id 9 
     name rfoot
     direction -0.107991 -0.296704 0.948844   
     length 2.09388  
     axis -90 -7.62852e-016 -20   XYZ
    dof rx rz
    limits (-45.0 90.0)
           (-20.0 70.0)
  end
  begin
     id 10 
     name rtoes
     direction -1.53559e-011 -4.21911e-011 1   
     length 1.04433   
     axis -90 -7.62852e-016 -20   XYZ
    dof rx
    limits (-90.0 20.0)
  end
  begin
     id 11 
     name lowerback
     direction 0.0165164 0.98272 0.184358   
     length 1.71896   
     axis 0 0 0   XYZ
    dof rx ry rz
    limits (-20.0 45.0)
           (-30.0 30.0)
           (-30.0 30.0)
  end
  begin
     id 12 
     name upperback
     direction -0.00887249 0.992297 0.123566   
     length 1.71504   
     axis 0 0 0   XYZ
    dof rx ry rz
    limits (-20.0 45.0)
           (-30.0 30.0)
           (-30.0 30.0)
  end
  begin
     id 13 
     name thorax
     direction -0.0157026 0.998908 0.0440032   
     length 1.77022   
     axis 0 0 0   XYZ
    dof rx ry rz
    limits (-20.0 45.0)
           (-30.0 30.0)
           (-30.0 30.0)
  end
  begin
     id 14 
     name lowerneck
     direction -0.0238856 0.998137 0.0561411   
     length 1.89341   
     axis 0 0 0   XYZ
    dof rx ry rz
    limits (-20.0 45.0)
           (-30.0 30.0)
           (-30.0 30.0)
  end
  begin
     id 15 
     name upperneck
     direction 0.0276574 0.952253 -0.304056   
     length 1.86999   
     axis 0 0 0   XYZ
    dof rx ry rz
    limits (-20.0 45.0)
           (-30.0 30.0)
           (-30.0 30.0)
  end
  begin
     id 16
     name head
     direction 0.00800083 0.994258 -0.106712  
     length 1.91492  
     axis 0 0 0   XYZ
    dof rx ry rz
    limits (-20.0 45.0)
           (-30.0 30.0)
           (-30.0 30.0)
  end
  begin
     id 17 
     name lclavicle
     direction 0.97203 0.225407 0.06595  
     length 3.34889  
     axis 0 0 0   XYZ
    dof ry rz
    limits (-20.0 10.0)
           (0.0 20.0)
  end
  begin
     id 18 
     name lhumerus
     direction 1 -4.48973e-011 2.20267e-027   
     length 4.85645   
     axis 180 -30 -90   XYZ
    dof rx ry rz
    limits (-60.0 90.0)
           (-90.0 90.0)
           (-90.0 90.0)
  end
  begin
     id 19
     name lradius
     direction 1 -4.4897e-011 4.60472e-027   
     length 2.79874   
     axis 180 -30 -90   XYZ
    dof rx
    limits (-10.0 170.0)
  end
  begin
     id 20
     name lwrist
     direction 1 -4.48952e-011 1.14928e-026   
     length 1.39937   
     axis -6.29373e-015 90 90   XYZ
    dof ry
    limits (-180.0 0.0)
 end
  begin
     id 21 
     name lhand
     direction 1 -4.48967e-011 2.29886e-026   
     length 0.573398   
     axis -1.46689e-014 90 90   XYZ
    dof rx rz
    limits (-90.0 90.0)
           (-45.0 45.0)
  end
  begin
     id 22 
     name lfingers
     direction 1 -4.48955e-011 4.59726e-026   
     length 0.462289   
     axis -2.93383e-014 90 90   XYZ
    dof rx
    limits (0.0 90.0)
  end
  begin
     id 23
     name lthumb
     direction 0.707107 -6.34866e-011 0.707107   
     length 0.663757   
     axis -90 45 5.69224e-014   XYZ
    dof rx rz
    limits (-45.0 45.0)
           (-45.0 45.0)
  end
  begin
     id 24 
     name rclavicle
     direction -0.981571 0.157346 0.108443   
     length 3.35257  
     axis 0 0 0   XYZ 
    dof ry rz
    limits (-10.0 20.0)
           (-20.0 0.0)
  end
  begin
     id 25 
     name rhumerus
     direction -1 -4.48967e-011 8.58308e-029  
     length 4.67018   
     axis 180 30 90   XYZ
    dof rx ry rz
    limits (-90.0 60.0)
           (-90.0 90.0)
           (-90.0 90.0)
  end
  begin
     id 26 
     name rradius
     direction -1 -4.48958e-011 4.52548e-027   
     length 2.65534   
     axis 180 30 90   XYZ
    dof rx
    limits (-10.0 170.0)
  end
  begin
     id 27 
     name rwrist
     direction -1 -4.48977e-011 1.14952e-026   
     length 1.32767   
     axis -6.29373e-015 -90 -90   XYZ
    dof ry
    limits (-180.0 0.0)
  end
  begin
     id 28
     name rhand
     direction -1 -4.48924e-011 2.29804e-026   
     length 0.594069   
     axis -1.46689e-014 -90 -90   XYZ
    dof rx rz
    limits (-90.0 90.0)
           (-45.0 45.0)
  end
  begin
     id 29
     name rfingers
     direction -1 -4.48998e-011 4.59888e-026   
     length 0.478954   
     axis -2.93383e-014 -90 -90   XYZ
    dof rx
    limits (0.0 90.0)
  end
  begin
     id 30
     name rthumb
     direction -0.707107 -6.34933e-011 0.707107   
     length 0.687685   
     axis -90 -45 -5.69224e-014   XYZ
    dof rx rz
    limits (-45.0 45.0)
           (-45.0 45.0)
  end
:hierarchy
  begin
    root lhipjoint rhipjoint lowerback
    lhipjoint lfemur
    lfemur ltibia
    ltibia lfoot
    lfoot ltoes
    rhipjoint rfemur
    rfemur rtibia
    rtibia rfoot
    rfoot rtoes
    lowerback upperback
    upperback thorax
    thorax lowerneck lclavicle rclavicle
    lowerneck upperneck
    upperneck head
    lclavicle lhumerus
    lhumerus lradius
    lradius lwrist
    lwrist lhand lthumb
    lhand lfingers
    rclavicle rhumerus
    rhumerus rradius
    rradius rwrist
    rwrist rhand rthumb
    rhand rfingers
  end

#!OML:ASF E:\pregnant2\Project 1\Capture day 1\Session 1\pregnant2.ASF
:FULLY-SPECIFIED
:DEGREES
654
root 9.29499 3.17856 12.1854 -143.146 13.3058 104.721
lowerback -6.4355 -2.3436 -9.41476
upperback -13.0561 -7.14276 -11.3741
thorax -11.5186 -4.96289 -6.81367
lowerneck -13.8819 -4.0278 -2.868
upperneck 38.481 14.0196 -22.858
head 19.733 5.62431 -6.82199
rclavicle 6.36111e-014 1.97194e-013
rhumerus -0.348048 21.0785 3.89584
rradius 77.9862
rwrist 10.6353
rhand -25.785 -20.2447
rfingers 7.12502
rthumb 0.753389 -50.2231
lclavicle 6.36111e-014 1.97194e-013
lhumerus 156.402 -75.8353 -60.5894
lradius 77.2672
lwrist -12.1566
lhand -45.8102 42.9857
lfingers 7.12502
lthumb -18.5631 72.12
rfemur -91.989 24.8718 25.7378
rtibia 117.684
rfoot 21.0818 -4.46198
rtoes 2.26406
lfemur -73.2012 4.47055 -17.882
ltibia 68.091
lfoot 15.1853 -2.64769
ltoes -12.017
655
root 9.28089 3.19824 12.182 -143.097 13.4652 105.139
lowerback -6.40101 -2.59028 -9.57667
upperback -13.2446 -7.46605 -10.9889
thorax -11.7042 -5.05636 -6.2698
lowerneck -13.5499 -3.8504 -3.21718
upperneck 38.2026 14.3899 -23.0307
head 19.562 5.73138 -6.73032
rclavicle -7.95139e-014 -8.90555e-014
rhumerus 0.768197 21.4057 3.7152
rradius 77.0348
rwrist 11.0347
rhand -26.3634 -20.673
rfingers 7.12502
rthumb 0.194727 -50.6527
lclavicle -7.95139e-014 -8.90555e-014
lhumerus 155.796 -76.6426 -59.7026
lradius 76.7315
lwrist -11.8672
lhand -45.8693 42.4399
lfingers 7.12502
lthumb -18.6199 71.5688
rfemur -91.9235 25.1458 25.8591
rtibia 117.623
rfoot 21.2675 -4.36073
rtoes 2.29511
lfemur -73.2178 4.64626 -17.601
ltibia 68.4878
lfoot 15.2773 -2.53052
ltoes -11.8342
656
root 9.26583 3.21803 12.1803 -143.11 13.5922 105.558
lowerback -6.33331 -2.73989 -9.61967
upperback -13.2642 -7.66391 -10.8421
thorax -11.748 -5.12844 -6.06592
lowerneck -13.4876 -3.71906 -3.30326
upperneck 38.0742 14.5287 -23.0306
head 19.4852 5.75579 -6.67354
rclavicle 1.04958e-013 1.08139e-013
rhumerus 1.307 21.6327 3.16108
rradius 76.0578
rwrist 11.7098
rhand -27.1693 -21.0262
rfingers 7.12502
rthumb -0.583585 -51.0052
lclavicle 1.04958e-013 1.08139e-013
lhumerus 155.16 -76.9006 -58.9695
lradius 76.2411
lwrist -11.6481
lhand -44.8817 36.1122
lfingers 7.12502
lthumb -17.6698 65.3293
rfemur -91.7975 25.4259 26.0379
rtibia 117.587
rfoot 21.2315 -4.26149
rtoes 2.39234
lfemur -73.1646 4.80811 -17.314
ltibia 68.8888
lfoot 15.3098 -2.42116
ltoes -11.9146
657
root 9.24915 3.23634 12.1788 -143.089 13.793 105.95
lowerback -6.31009 -2.78592 -9.69591
upperback -13.272 -7.75926 -10.8422
thorax -11.7747 -5.17882 -6.01657
lowerneck -13.4083 -3.68112 -3.26864
upperneck 38.0392 14.4932 -22.9937
head 19.4193 5.73303 -6.66869
rclavicle 5.725e-014 -2.54444e-014
rhumerus 1.50918 21.8263 2.40244
rradius 75.1078
rwrist 12.187
rhand -27.8291 -21.4176
rfingers 7.12502
rthumb -1.22086 -51.3938
lclavicle 5.725e-014 -2.54444e-014
lhumerus 155.162 -76.9341 -58.8974
lradius 75.7407
lwrist -11.5752
lhand -45.0563 37.5021
lfingers 7.12502
lthumb -17.8378 66.704
rfemur -91.7493 25.7228 26.1295
rtibia 117.527
rfoot 21.5385 -4.16806
rtoes 2.44863
lfemur -73.16 5.00868 -17.0955
ltibia 69.3028
lfoot 15.3835 -2.26684
ltoes -11.6997
658
root 9.23475 3.25814 12.1804 -143.236 13.979 106.365
lowerback -5.95838 -2.83983 -9.83808
upperback -13.3416 -7.91894 -10.7562
thorax -12.0549 -5.23121 -5.802
lowerneck -13.099 -3.6315 -3.32615
upperneck 37.8649 14.4602 -23.0376
head 19.2068 5.71491 -6.66615
rclavicle 6.67916e-014 6.36111e-015
rhumerus 1.88235 22.1706 1.76238
rradius 74.1093
rwrist 12.6652
rhand -28.5441 -22.1091
rfingers 7.12502
rthumb -1.91137 -52.0803
lclavicle 6.67916e-014 6.36111e-015
lhumerus 154.973 -77.0686 -58.5784
lradius 75.4093
lwrist -10.7451
lhand -45.0515 38.3178
lfingers 7.12502
lthumb -17.8332 67.5201
rfemur -91.481 26.0181 26.3476
rtibia 117.479
rfoot 21.7816 -4.09747
rtoes 2.54248
lfemur -72.9564 5.18758 -16.8259
ltibia 69.7128
lfoot 15.4166 -2.11834
ltoes -11.4531
659
root 9.22033 3.28414 12.1827 -143.302 14.0568 106.881
lowerback -5.89383 -2.90507 -9.60561
upperback -13.2006 -7.97395 -10.7755
thorax -11.9439 -5.27365 -5.944
lowerneck -13.3839 -3.58612 -3.30993
upperneck 37.951 14.4454 -22.8636
head 19.3054 5.66504 -6.60246
rclavicle 7.95139e-015 -6.36111e-015
rhumerus 2.03952 22.0987 0.817697
rradius 73.0732
rwrist 13.1107
rhand -29.3752 -22.397
rfingers 7.12502
rthumb -2.71407 -52.3594
lclavicle 7.95139e-015 -6.36111e-015
lhumerus 154.438 -76.9474 -58.0027
lradius 74.703
lwrist -11.504
lhand -45.6776 41.8591
lfingers 7.12502
lthumb -18.4356 71.0055
rfemur -91.22 26.2833 26.6673
rtibia 117.382
rfoot 21.5731 -3.97817
rtoes 2.66223
lfemur -72.8471 5.3444 -16.4361
ltibia 70.1421
lfoot 15.4018 -1.89532
ltoes -11.3105
660
root 9.20642 3.30854 12.1793 -143.342 14.169 107.411
lowerback -5.83008 -2.94289 -9.47214
upperback -13.198 -8.03625 -10.7359
thorax -11.987 -5.31373 -5.96238
lowerneck -13.3403 -3.54461 -3.32356
upperneck 37.9286 14.4875 -22.8561
head 19.2846 5.6699 -6.58856
rclavicle 8.11041e-014 4.45278e-014
rhumerus 2.34149 22.3146 0.00912898
rradius 71.9937
rwrist 13.5458
rhand -30.0729 -23.3533
rfingers 7.12502
rthumb -3.38783 -53.3062
lclavicle 8.11041e-014 4.45278e-014
lhumerus 154.54 -76.9413 -57.9783
lradius 74.0959
lwrist -11.7361
lhand -45.7269 42.5455
lfingers 7.12502
lthumb -18.483 71.6874
rfemur -90.9831 26.5741 26.9937
rtibia 117.259
rfoot 21.5325 -3.90848
rtoes 2.6987
lfemur -72.6922 5.53852 -16.077
ltibia 70.4363
lfoot 15.4777 -1.76905
ltoes -11.1243
661
root 9.18832 3.33152 12.181 -143.394 14.3378 107.854
lowerback -5.75283 -2.97958 -9.4806
upperback -13.1604 -8.10637 -10.7377
thorax -11.9925 -5.35047 -5.94854
lowerneck -13.3607 -3.51784 -3.37552
upperneck 37.8955 14.4286 -22.7616
head 19.2292 5.61563 -6.54233
rclavicle -2.54444e-014 1.90833e-013
rhumerus 2.50272 22.4477 -0.834396
rradius 71.0165
rwrist 14.1538
rhand -30.7984 -24.1765
rfingers 7.12502
rthumb -4.08848 -54.117
lclavicle -2.54444e-014 1.90833e-013
lhumerus 154.259 -76.9012 -57.5832
lradius 73.5383
lwrist -11.5814
lhand -45.7709 43.1839
lfingers 7.12502
lthumb -18.5253 72.3218
rfemur -90.9232 26.8541 27.248
rtibia 117.127
rfoot 21.5201 -3.87445
rtoes 2.79544
lfemur -72.521 5.71672 -15.8112
ltibia 70.5603
lfoot 15.7598 -1.6246
ltoes -10.7929
662
root 9.24581 3.35379 12.1509 -145.37 14.1518 107.869
lowerback -4.05787 -3.12816 -10.1468
upperback -12.5505 -8.41931 -10.7847
thorax -12.216 -5.34298 -5.47866
lowerneck -13.4075 -3.49707 -3.38118
upperneck 37.859 14.3944 -22.7334
head 19.2026 5.57709 -6.53516
rclavicle -1.59028e-015 -3.18055e-015
rhumerus 2.69777 22.5592 -1.7017
rradius 69.9663
rwrist 14.833
rhand -31.4933 -25.1244
rfingers 7.12502
rthumb -4.75949 -55.0509
lclavicle -1.59028e-015 -3.18055e-015
lhumerus 154.04 -76.8911 -57.2417
lradius 72.9374
lwrist -11.4782
lhand -45.58 42.2441
lfingers 7.12502
lthumb -18.3417 71.3994
rfemur -87.6456 26.4758 28.4099
rtibia 116.507
rfoot 21.5479 -3.60305
rtoes 2.49426
lfemur -69.8103 5.35854 -15.57
ltibia 70.2815
lfoot 15.5677 -1.49727
ltoes -10.6278
663
root 9.34442 3.40074 12.1129 -148.646 15.4665 108.585
lowerback -0.881077 -2.64266 -11.269
upperback -11.8608 -8.17053 -10.7195
thorax -13.1734 -4.94964 -4.55231
lowerneck -13.365 -3.45082 -3.37436
upperneck 37.7482 14.4673 -22.8608
head 19.1615 5.59083 -6.58044
rclavicle -7.95139e-015 -1.74931e-013
rhumerus 3.17999 22.7687 -2.4847
rradius 68.8113
rwrist 15.571
rhand -32.1377 -26.1149
rfingers 7.12502
rthumb -5.38164 -56.0265
lclavicle -7.95139e-015 -1.74931e-013
lhumerus 153.89 -77.0477 -56.9715
lradius 72.2596
lwrist -11.5752
lhand -45.5251 42.4514
lfingers 7.12502
lthumb -18.2889 71.6116
rfemur -82.0858 27.2347 29.903
rtibia 115.288
rfoot 22.2049 -3.15168
rtoes 3.39045
lfemur -64.8958 6.24651 -15.3258
ltibia 69.9115
lfoot 15.0534 -1.02229
ltoes -10.4209
